<?xml version="1.0" standalone="no"?>
<!DOCTYPE svg PUBLIC "-//W3C//DTD SVG 20010904//EN"
 "http://www.w3.org/TR/2001/REC-SVG-20010904/DTD/svg10.dtd">
<svg version="1.0" xmlns="http://www.w3.org/2000/svg"
 width="512.000000pt" height="512.000000pt" viewBox="0 0 512.000000 512.000000"
 preserveAspectRatio="xMidYMid meet">
<metadata>
Created by potrace 1.11, written by Peter Selinger 2001-2013
</metadata>
<g transform="translate(0.000000,512.000000) scale(0.100000,-0.100000)"
fill="#000000" stroke="none">
<path d="M2469 4796 c-2 -2 -25 -6 -50 -9 -60 -7 -188 -50 -248 -83 -212 -118
-362 -304 -431 -534 -32 -107 -35 -130 -34 -280 0 -110 4 -151 24 -220 57
-205 161 -364 320 -487 95 -74 234 -139 335 -158 17 -3 46 -8 65 -12 92 -16
257 -1 365 34 225 72 431 262 525 481 61 143 74 213 74 377 -1 174 -18 256
-84 393 -48 102 -85 155 -161 236 -108 116 -250 199 -413 242 -55 15 -276 30
-287 20z"/>
<path d="M915 4114 c-81 -16 -210 -76 -275 -131 -102 -84 -191 -221 -226 -348
-41 -150 -22 -339 47 -480 46 -95 65 -122 140 -195 87 -85 209 -149 319 -169
46 -8 206 -6 248 2 189 41 369 191 456 379 48 107 70 289 47 403 -74 373 -400
605 -756 539z"/>
<path d="M4010 4122 c-274 -40 -492 -241 -554 -510 -16 -72 -19 -226 -4 -298
37 -186 174 -372 336 -457 95 -50 163 -68 272 -72 378 -16 681 300 666 695
-10 264 -152 480 -389 590 -90 43 -237 66 -327 52z"/>
<path d="M2439 2934 c-12 -15 13 -118 37 -144 12 -14 76 -18 162 -11 29 2 77
160 50 162 -7 1 -63 3 -125 4 -84 2 -115 -1 -124 -11z"/>
<path d="M2060 2846 c-67 -25 -165 -79 -251 -137 -320 -219 -537 -566 -614
-984 -9 -47 -19 -1088 -11 -1120 8 -31 53 -73 106 -100 123 -62 380 -123 635
-150 28 -3 68 -8 90 -11 220 -26 939 -25 1096 1 13 2 51 6 83 10 357 35 686
138 732 228 13 23 15 106 14 500 0 519 -2 568 -31 708 -88 442 -376 823 -768
1018 -127 64 -112 69 -223 -87 -196 -277 -349 -487 -357 -490 -4 -1 -108 139
-231 312 -124 173 -227 315 -230 315 -3 0 -21 -6 -40 -13z"/>
<path d="M2445 2625 l-38 -125 20 -23 c10 -12 45 -52 77 -89 45 -52 61 -65 69
-55 7 7 41 47 76 90 l63 78 -34 122 -34 122 -80 3 -80 3 -39 -126z"/>
<path d="M948 2729 c-11 -7 -6 -42 14 -91 10 -27 17 -30 73 -30 63 0 72 3 83
26 16 35 26 96 16 97 -37 5 -177 3 -186 -2z"/>
<path d="M4008 2732 c-23 -5 -23 -46 0 -91 18 -36 22 -37 127 -32 28 2 69 120
42 122 -38 3 -155 4 -169 1z"/>
<path d="M596 2629 c-196 -99 -354 -253 -460 -449 -46 -87 -73 -157 -104 -270
-24 -93 -25 -104 -29 -515 l-5 -421 29 -28 c59 -60 183 -101 422 -141 123 -21
275 -33 499 -39 l102 -3 1 411 c1 405 2 437 13 526 12 86 18 115 37 193 61
242 189 491 339 659 27 31 50 60 50 65 0 11 -100 54 -110 48 -5 -3 -51 -65
-103 -138 -110 -155 -228 -320 -234 -327 -7 -8 -36 30 -198 258 -82 116 -154
211 -160 211 -5 0 -46 -17 -89 -40z"/>
<path d="M3673 2647 c-39 -19 -55 -40 -35 -49 4 -1 32 -32 61 -67 153 -185
271 -426 327 -666 38 -162 42 -229 43 -669 1 -231 3 -422 6 -425 6 -10 348 1
425 13 14 3 52 7 85 10 33 3 74 8 90 11 252 44 397 97 429 157 16 30 17 65 13
443 -5 437 -6 447 -61 609 -90 266 -286 492 -535 617 -43 21 -82 39 -87 38 -5
0 -61 -73 -124 -161 -186 -261 -221 -308 -228 -307 -4 0 -82 104 -173 232 -91
128 -172 233 -180 233 -8 1 -33 -8 -56 -19z"/>
<path d="M975 2578 c-2 -7 -11 -38 -20 -68 -9 -30 -20 -67 -25 -83 -8 -24 -2
-34 47 -92 30 -36 58 -65 62 -64 3 0 30 29 59 64 l53 63 -28 96 -27 96 -58 0
c-38 0 -60 -4 -63 -12z"/>
<path d="M4021 2568 c-4 -13 -19 -56 -31 -95 l-23 -73 59 -66 58 -67 39 44
c80 90 78 82 48 184 l-26 90 -58 3 c-52 3 -58 1 -66 -20z"/>
</g>
</svg>
